<mxfile host="app.diagrams.net" modified="2021-03-18T22:22:32.748Z" agent="5.0 (Windows NT 10.0; Win64; x64) AppleWebKit/537.36 (KHTML, like Gecko) Chrome/89.0.4389.90 Safari/537.36" etag="gTXleKpeUwgTUqEAU3Ft" version="14.4.9" type="github">
  <diagram id="-DA67M4moTYqDnZRM0nm" name="Page-1">
    <mxGraphModel dx="948" dy="426" grid="1" gridSize="10" guides="1" tooltips="1" connect="1" arrows="1" fold="1" page="1" pageScale="1" pageWidth="850" pageHeight="1100" math="0" shadow="0">
      <root>
        <mxCell id="0" />
        <mxCell id="1" parent="0" />
        <mxCell id="gewF9faIJ3fsy0HIT6mB-1" value="PROS" style="rounded=0;whiteSpace=wrap;html=1;" vertex="1" parent="1">
          <mxGeometry x="180" y="120" width="120" height="60" as="geometry" />
        </mxCell>
      </root>
    </mxGraphModel>
  </diagram>
</mxfile>
